<svg width="1416" height="21" fill="none" preserveAspectRatio="none" xmlns="http://www.w3.org/2000/svg"><g clip-path="url(#a)" fill="#000"><path d="m1416 14-70-4c-34 0-63 0-104 2-57 1-166 7-224 4l-89-6c-33-2-100-7-183-6-89 0-249 12-315 11l-52-1-85-4h-71l-60 1-79 2H0v8h1416v-7Zm-113-1h-22l-29 1 30-2c15 0 24 0 21 1Zm-92 2h-28l-76 3h-75l88-1 62-2h29Zm-286 0-92-5-50-1c-20 0-45 0-44-1h56l38 2c19 0 84 4 92 5Zm69 1-24-1-34-3 33 3 25 1Zm420 0a1373 1373 0 0 0-21-1l21 1ZM156 12c1 1-9 1-22 1a1284 1284 0 0 1-96 2l63-1 28-1 27-1Zm209 2 42 2 44 1h-31l-55-3Zm-7 2 28 1c12 0 10 1 10 1l-14-1-24-1Zm110 2 27-2h10l-12 1-25 1Zm-141-5h9l11 1-12-1h-8Zm-155-1a403 403 0 0 1 19 0h-19Zm588-6h-37l-86 2 82-3 41 1Z"/><path d="M1347 8h-36l-83 2a4964 4964 0 0 1 119-2Zm-211 6-48 1-61-1c1 0 29 2 66 1l43-1Zm-115-3a241 241 0 0 0 18 0h-18Zm-17 2a1001 1001 0 0 1-31-2l31 2ZM772 2h-36l-83 2a4963 4963 0 0 1 119-2ZM209 7h15l41-1 35 2-43-1h-48Zm168 5 22 1h10a234 234 0 0 1-32-1ZM78 11a1144 1144 0 0 0 58-2l-25 1-33 1Z"/></g><defs><clipPath id="a"><path fill="#fff" transform="matrix(1 0 0 -1 0 21)" d="M0 0h1416v20H0z"/></clipPath></defs></svg>